HIERARCHY
ROOT Hips
{
	OFFSET 0.000000 0.000000 0.000000
	CHANNELS 6 Xposition Yposition Zposition Xrotation Yrotation Zrotation
	JOINT LeftUpLeg_virtual
	{
		OFFSET 0.000000 0.000000 0.000000
		CHANNELS 3 Xrotation Yrotation Zrotation
		JOINT LeftUpLeg
		{
			OFFSET 15.427100 -6.655098 0.678600
			CHANNELS 3 Xrotation Yrotation Zrotation
			JOINT LeftLeg
			{
				OFFSET 4.081073 -39.591068 13.024000
				CHANNELS 3 Xrotation Yrotation Zrotation
				JOINT LeftFoot
				{
					OFFSET -4.081074 -37.707932 -15.979700
					CHANNELS 3 Xrotation Yrotation Zrotation
					JOINT LeftToeBase
					{
						OFFSET 5.346399 -15.068900 20.645000
						CHANNELS 3 Xrotation Yrotation Zrotation
						JOINT LeftToe_End
						{
							OFFSET 2.754700 0.931300 11.300900
							CHANNELS 3 Xrotation Yrotation Zrotation
							End Site
							{
								OFFSET 0 0 0
							}
						}
					}
				}
			}
		}
	}
	JOINT RightUpLeg_virtual
	{
		OFFSET 0.000000 0.000000 0.000000
		CHANNELS 3 Xrotation Yrotation Zrotation
		JOINT RightUpLeg
		{
			OFFSET -15.569500 -6.655098 0.678600
			CHANNELS 3 Xrotation Yrotation Zrotation
			JOINT RightLeg
			{
				OFFSET -4.081825 -39.591045 13.023800
				CHANNELS 3 Xrotation Yrotation Zrotation
				JOINT RightFoot
				{
					OFFSET 4.081824 -37.707954 -15.979600
					CHANNELS 3 Xrotation Yrotation Zrotation
					JOINT RightToeBase
					{
						OFFSET -5.346400 -15.068900 20.645000
						CHANNELS 3 Xrotation Yrotation Zrotation
						JOINT RightToe_End
						{
							OFFSET -2.754700 0.931300 11.300900
							CHANNELS 3 Xrotation Yrotation Zrotation
							End Site
							{
								OFFSET 0 0 0
							}
						}
					}
				}
			}
		}
	}
	JOINT Spine_virtual
	{
		OFFSET 0.000000 0.000000 0.000000
		CHANNELS 3 Xrotation Yrotation Zrotation
		JOINT Spine
		{
			OFFSET -0.279200 12.230698 -2.892100
			CHANNELS 3 Xrotation Yrotation Zrotation
			JOINT Spine1
			{
				OFFSET -0.232667 10.192268 -1.242267
				CHANNELS 3 Xrotation Yrotation Zrotation
				JOINT Spine1_split
				{
					OFFSET -0.232667 10.192268 -1.242267
					CHANNELS 3 Xrotation Yrotation Zrotation
					JOINT Spine2
					{
						OFFSET -0.232667 10.192268 -1.242267
						CHANNELS 3 Xrotation Yrotation Zrotation
						JOINT Neck_virtual
						{
							OFFSET 0.000000 0.000000 0.000000
							CHANNELS 3 Xrotation Yrotation Zrotation
							JOINT Neck
							{
								OFFSET -0.418800 17.814194 8.416900
								CHANNELS 3 Xrotation Yrotation Zrotation
								JOINT Head
								{
									OFFSET 0.000000 7.031097 3.806800
									CHANNELS 3 Xrotation Yrotation Zrotation
									JOINT HeadTop_End
									{
										OFFSET 0.000000 24.646606 12.978600
										CHANNELS 3 Xrotation Yrotation Zrotation
										End Site
										{
											OFFSET 0 0 0
										}
									}
								}
							}
						}
						JOINT LeftShoulder_virtual
						{
							OFFSET 0.000000 0.000000 0.000000
							CHANNELS 3 Xrotation Yrotation Zrotation
							JOINT LeftShoulder
							{
								OFFSET 8.476499 7.247704 -3.868750
								CHANNELS 3 Xrotation Yrotation Zrotation
								JOINT LeftShoulder_split
								{
									OFFSET 8.476499 7.247704 -3.868750
									CHANNELS 3 Xrotation Yrotation Zrotation
									JOINT LeftArm
									{
										OFFSET 9.308998 -2.777710 0.208600
										CHANNELS 3 Xrotation Yrotation Zrotation
										JOINT LeftForeArm
										{
											OFFSET 29.972298 0.000000 0.000000
											CHANNELS 3 Xrotation Yrotation Zrotation
											JOINT LeftHand
											{
												OFFSET 26.026505 0.000000 0.000000
												CHANNELS 3 Xrotation Yrotation Zrotation
												End Site
												{
													OFFSET 0 0 0
												}
											}
										}
									}
								}
							}
						}
						JOINT RightShoulder_virtual
						{
							OFFSET 0.000000 0.000000 0.000000
							CHANNELS 3 Xrotation Yrotation Zrotation
							JOINT RightShoulder
							{
								OFFSET -7.570500 7.247704 -3.868750
								CHANNELS 3 Xrotation Yrotation Zrotation
								JOINT RightShoulder_split
								{
									OFFSET -7.570500 7.247704 -3.868750
									CHANNELS 3 Xrotation Yrotation Zrotation
									JOINT RightArm
									{
										OFFSET -9.308998 -2.777710 0.208500
										CHANNELS 3 Xrotation Yrotation Zrotation
										JOINT RightForeArm
										{
											OFFSET -29.972300 0.000000 0.000000
											CHANNELS 3 Xrotation Yrotation Zrotation
											JOINT RightHand
											{
												OFFSET -26.026505 0.000000 0.000000
												CHANNELS 3 Xrotation Yrotation Zrotation
												End Site
												{
													OFFSET 0 0 0
												}
											}
										}
									}
								}
							}
						}
					}
				}
			}
		}
	}
}
MOTION
Frames: 5
Frame Time: 0.03333333
-6.081477 107.210434 181.599930 0.000000 0.000000 0.000000 21.271144 7.733154 0.873903 -9.256866 13.505904 9.585109 38.543584 13.351859 3.454736 8.810645 -0.468290 -0.212924 8.249346 1.400201 -4.751976 0.000000 0.000000 0.000000 20.663540 11.268005 0.635070 -54.640615 -16.571432 -13.434534 38.159724 -2.760252 -11.044449 38.054986 2.620293 -1.437773 11.868152 1.047931 0.944277 0.000000 0.000000 0.000000 20.605824 4.812690 2.722684 -0.345304 0.645638 1.043384 -3.981468 -0.211674 0.165950 0.431366 -1.420881 0.132065 0.000000 0.000000 0.000000 -1.420310 0.040789 -0.903461 -10.845799 0.209882 -7.560230 -25.448863 6.896095 2.229080 0.000000 0.000000 0.000000 -4.540905 0.131794 0.146500 10.330262 -4.695472 31.201185 5.167936 6.433104 -0.819224 -50.912657 -17.096285 11.819155 -40.766910 -43.371841 -8.198194 0.000000 0.000000 0.000000 -3.678024 0.269705 0.047359 -3.959173 -18.688496 -38.401912 4.283699 2.714823 3.251022 -100.449523 12.095835 44.768034 -32.462649 54.770044 1.861698 0.000000 0.000000 0.000000 
-6.098153 101.812805 190.793808 0.000000 0.000000 0.000000 17.198409 8.504601 0.621813 -8.542757 13.147026 11.194728 38.575686 13.052990 2.082369 6.935915 -1.035431 -1.417260 7.131678 1.743441 -7.568259 0.000000 0.000000 0.000000 17.020915 12.715919 0.294712 -58.086101 -16.648079 -13.625414 42.450787 -0.836583 -10.894613 34.658333 1.204475 -2.431735 9.415760 0.824565 0.585330 0.000000 0.000000 0.000000 16.488304 6.326003 1.896856 0.988706 0.307297 0.815858 -3.817196 -0.711914 0.456375 0.576375 -0.375382 0.277861 0.000000 0.000000 0.000000 -1.567800 -0.272338 -0.983446 -8.371506 0.335174 -7.124110 -26.983007 5.967238 3.202703 0.000000 0.000000 0.000000 -4.890344 -0.170330 0.096616 10.267737 -4.292415 32.329058 4.376609 6.893341 -1.225320 -48.995416 -13.842890 14.331450 -41.356478 -40.889447 -7.022281 0.000000 0.000000 0.000000 -3.829917 0.078309 0.191484 -4.766569 -19.089144 -40.596732 4.351721 2.053389 3.574943 -97.300430 14.156333 40.137299 -29.927454 50.744928 -4.423132 0.000000 0.000000 0.000000 
-6.271318 97.604675 199.413055 0.000000 0.000000 0.000000 12.733885 9.118828 0.281368 -9.657698 13.687392 12.197552 38.516393 12.392350 1.201423 3.904114 -1.946149 -1.285236 5.097236 2.004463 -9.381343 0.000000 0.000000 0.000000 12.972128 14.392083 -0.159320 -58.604403 -18.903571 -13.926385 43.363191 0.473413 -10.268745 32.141279 -0.378017 -3.454265 6.949683 0.625215 0.566088 0.000000 0.000000 0.000000 11.993564 7.792424 0.974259 2.214111 0.100420 0.843857 -3.520107 -1.368488 0.743787 0.861988 0.285349 0.298259 0.000000 0.000000 0.000000 -1.725149 -0.771256 -0.977194 -5.675125 0.530660 -6.303356 -26.989798 4.942265 4.389155 0.000000 0.000000 0.000000 -5.055519 -0.661923 -0.023367 10.404419 -3.892298 33.451698 3.882116 6.689065 -1.609475 -46.144447 -9.483363 16.229752 -41.686082 -39.135556 -6.017593 0.000000 0.000000 0.000000 -3.941366 -0.337025 0.369057 -4.786589 -19.069057 -41.530012 4.236633 1.208733 3.440543 -92.190492 15.616953 35.199947 -29.981938 48.910315 -6.967638 0.000000 0.000000 0.000000 
-6.630306 95.023560 207.761246 0.000000 0.000000 0.000000 8.629713 9.847957 -0.140347 -11.540079 15.123454 12.271347 37.067505 11.200356 1.121449 -0.075842 -3.062730 -0.468729 2.968631 2.137093 -9.807988 0.000000 0.000000 0.000000 8.951822 16.392145 -0.584560 -56.040012 -22.557221 -13.908925 40.570494 1.248141 -9.365422 29.267296 -1.938512 -4.803885 5.881785 0.527631 0.857837 0.000000 0.000000 0.000000 7.387740 9.099932 0.138496 3.069017 -0.010293 1.071460 -3.210385 -2.076563 0.970430 1.114465 0.103166 0.291145 0.000000 0.000000 0.000000 -1.889372 -1.374976 -0.899398 -2.545143 0.812023 -5.185793 -25.393697 4.059346 5.643421 0.000000 0.000000 0.000000 -5.110898 -1.268876 -0.149012 10.640002 -3.312522 34.606786 3.627436 6.047075 -1.863075 -43.385720 -5.056054 17.149280 -42.096973 -38.596801 -5.763889 0.000000 0.000000 0.000000 -4.073439 -0.916399 0.553251 -4.104117 -18.751683 -41.188674 4.194842 0.488852 2.978174 -86.158212 15.845404 30.441979 -31.967918 51.053687 -5.925127 0.000000 0.000000 0.000000 
-7.110709 94.108475 216.001434 0.000000 0.000000 0.000000 5.250898 10.776563 -0.526257 -13.378571 17.171280 11.575507 33.580864 9.042345 1.746595 -3.078295 -4.226281 -0.706185 0.392060 2.186974 -8.723668 0.000000 0.000000 0.000000 5.251726 18.342932 -0.804132 -51.092445 -26.636367 -13.276734 35.098457 1.487902 -8.392539 25.962676 -3.085287 -6.516469 6.099127 0.651497 1.249963 0.000000 0.000000 0.000000 3.299626 10.239038 -0.505072 3.275451 -0.087638 1.382410 -3.063779 -2.722983 1.063906 1.443386 -0.062111 -0.111887 0.000000 0.000000 0.000000 -2.106182 -1.987428 -0.825296 1.037137 1.212483 -3.981444 -22.320150 3.341748 6.878628 0.000000 0.000000 0.000000 -5.190511 -1.901355 -0.278435 10.863447 -2.472932 35.951367 3.343294 5.226697 -1.824315 -41.611865 -1.465341 17.408107 -42.794858 -39.098079 -6.433434 0.000000 0.000000 0.000000 -4.267252 -1.564374 0.662847 -2.817282 -18.160986 -39.871738 4.039507 -0.340281 2.204056 -80.535286 15.118631 26.534175 -35.515276 55.320496 -1.713920 0.000000 0.000000 0.000000 
